<mxfile host="app.diagrams.net" modified="2021-05-02T16:42:13.081Z" agent="5.0 (Windows)" etag="4JphCN5EeX7MkmZwGFkc" version="14.6.9" type="github">
  <diagram name="Page-1" id="e7e014a7-5840-1c2e-5031-d8a46d1fe8dd">
    <mxGraphModel dx="1226" dy="611" grid="1" gridSize="10" guides="1" tooltips="1" connect="1" arrows="1" fold="1" page="1" pageScale="1" pageWidth="1169" pageHeight="826" background="#ffffff" math="0" shadow="0">
      <root>
        <mxCell id="0" />
        <mxCell id="1" parent="0" />
        <mxCell id="2" value="User Application" style="swimlane;whiteSpace=wrap;startSize=23;" parent="1" vertex="1">
          <mxGeometry x="164.5" y="128" width="280" height="570" as="geometry" />
        </mxCell>
        <mxCell id="NGMvnV3TCi31GRs46Qfe-13" value="Custom Actor" style="swimlane;fontStyle=0;childLayout=stackLayout;horizontal=1;startSize=26;fillColor=none;horizontalStack=0;resizeParent=1;resizeParentMax=0;resizeLast=0;collapsible=1;marginBottom=0;" vertex="1" parent="2">
          <mxGeometry x="35.5" y="40" width="154.5" height="52" as="geometry" />
        </mxCell>
        <mxCell id="NGMvnV3TCi31GRs46Qfe-14" value="knownActor: ActorRef" style="text;strokeColor=none;fillColor=none;align=left;verticalAlign=top;spacingLeft=4;spacingRight=4;overflow=hidden;rotatable=0;points=[[0,0.5],[1,0.5]];portConstraint=eastwest;" vertex="1" parent="2">
          <mxGeometry x="35.5" y="66" width="154.5" height="26" as="geometry" />
        </mxCell>
        <mxCell id="NGMvnV3TCi31GRs46Qfe-29" style="edgeStyle=orthogonalEdgeStyle;rounded=0;orthogonalLoop=1;jettySize=auto;html=1;exitX=0;exitY=0.5;exitDx=0;exitDy=0;entryX=0.5;entryY=1;entryDx=0;entryDy=0;fillColor=#d5e8d4;strokeColor=#82b366;" edge="1" parent="2" source="NGMvnV3TCi31GRs46Qfe-14" target="NGMvnV3TCi31GRs46Qfe-13">
          <mxGeometry relative="1" as="geometry">
            <mxPoint x="15.5" y="192" as="targetPoint" />
            <Array as="points">
              <mxPoint x="15.5" y="79" />
              <mxPoint x="15.5" y="122" />
              <mxPoint x="112.5" y="122" />
            </Array>
          </mxGeometry>
        </mxCell>
        <mxCell id="NGMvnV3TCi31GRs46Qfe-31" value="Set Actor " style="edgeLabel;html=1;align=center;verticalAlign=middle;resizable=0;points=[];spacingRight=5;" vertex="1" connectable="0" parent="NGMvnV3TCi31GRs46Qfe-29">
          <mxGeometry x="0.3558" y="-1" relative="1" as="geometry">
            <mxPoint x="-16" as="offset" />
          </mxGeometry>
        </mxCell>
        <mxCell id="NGMvnV3TCi31GRs46Qfe-85" value="instantiates" style="edgeStyle=orthogonalEdgeStyle;rounded=0;orthogonalLoop=1;jettySize=auto;html=1;exitX=0.5;exitY=0;exitDx=0;exitDy=0;entryX=0.628;entryY=1;entryDx=0;entryDy=0;entryPerimeter=0;" edge="1" parent="2" source="NGMvnV3TCi31GRs46Qfe-82" target="NGMvnV3TCi31GRs46Qfe-14">
          <mxGeometry relative="1" as="geometry" />
        </mxCell>
        <mxCell id="NGMvnV3TCi31GRs46Qfe-82" value="Actor System Object" style="html=1;align=left;" vertex="1" parent="2">
          <mxGeometry x="25.5" y="276" width="114.5" height="54" as="geometry" />
        </mxCell>
        <mxCell id="NGMvnV3TCi31GRs46Qfe-91" value="&lt;div align=&quot;center&quot;&gt;Automata.json&lt;/div&gt;" style="whiteSpace=wrap;html=1;shape=mxgraph.basic.document;align=center;" vertex="1" parent="2">
          <mxGeometry x="165.5" y="462" width="100" height="100" as="geometry" />
        </mxCell>
        <mxCell id="3" value="Secured Actor" style="swimlane;whiteSpace=wrap;startSize=23;" parent="1" vertex="1">
          <mxGeometry x="444.5" y="128" width="405.5" height="570" as="geometry">
            <mxRectangle x="444.5" y="128" width="110" height="23" as="alternateBounds" />
          </mxGeometry>
        </mxCell>
        <mxCell id="IVH2vKFqgPVNo_6xjJGo-69" style="edgeStyle=orthogonalEdgeStyle;rounded=0;orthogonalLoop=1;jettySize=auto;html=1;entryX=0.5;entryY=0;entryDx=0;entryDy=0;" parent="3" source="IVH2vKFqgPVNo_6xjJGo-62" target="IVH2vKFqgPVNo_6xjJGo-68" edge="1">
          <mxGeometry relative="1" as="geometry" />
        </mxCell>
        <mxCell id="NGMvnV3TCi31GRs46Qfe-48" value="gets the message types" style="edgeLabel;html=1;align=center;verticalAlign=middle;resizable=0;points=[];" vertex="1" connectable="0" parent="IVH2vKFqgPVNo_6xjJGo-69">
          <mxGeometry x="-0.5836" y="1" relative="1" as="geometry">
            <mxPoint x="-13" y="10" as="offset" />
          </mxGeometry>
        </mxCell>
        <mxCell id="IVH2vKFqgPVNo_6xjJGo-62" value="SecureActor" style="swimlane;fontStyle=0;childLayout=stackLayout;horizontal=1;startSize=26;fillColor=none;horizontalStack=0;resizeParent=1;resizeParentMax=0;resizeLast=0;collapsible=1;marginBottom=0;" parent="3" vertex="1">
          <mxGeometry x="10" y="32" width="255.5" height="326" as="geometry" />
        </mxCell>
        <mxCell id="IVH2vKFqgPVNo_6xjJGo-63" value="+ sendOrderMessage: Control Message" style="text;strokeColor=none;fillColor=none;align=left;verticalAlign=top;spacingLeft=4;spacingRight=4;overflow=hidden;rotatable=0;points=[[0,0.5],[1,0.5]];portConstraint=eastwest;" parent="IVH2vKFqgPVNo_6xjJGo-62" vertex="1">
          <mxGeometry y="26" width="255.5" height="26" as="geometry" />
        </mxCell>
        <mxCell id="IVH2vKFqgPVNo_6xjJGo-65" value="+ manageControls: Receive (behaviour)&#xa;" style="text;strokeColor=none;fillColor=none;align=left;verticalAlign=top;spacingLeft=4;spacingRight=4;overflow=hidden;rotatable=0;points=[[0,0.5],[1,0.5]];portConstraint=eastwest;" parent="IVH2vKFqgPVNo_6xjJGo-62" vertex="1">
          <mxGeometry y="52" width="255.5" height="28" as="geometry" />
        </mxCell>
        <mxCell id="NGMvnV3TCi31GRs46Qfe-69" value="+ vc: VectorClock" style="text;strokeColor=none;fillColor=none;align=left;verticalAlign=top;spacingLeft=4;spacingRight=4;overflow=hidden;rotatable=0;points=[[0,0.5],[1,0.5]];portConstraint=eastwest;" vertex="1" parent="IVH2vKFqgPVNo_6xjJGo-62">
          <mxGeometry y="80" width="255.5" height="26" as="geometry" />
        </mxCell>
        <mxCell id="NGMvnV3TCi31GRs46Qfe-46" value="+ sendSecureMessage: function" style="swimlane;childLayout=stackLayout;horizontal=1;startSize=30;horizontalStack=0;rounded=1;fontSize=14;fontStyle=0;strokeWidth=2;resizeParent=0;resizeLast=1;shadow=0;dashed=0;align=left;" vertex="1" parent="IVH2vKFqgPVNo_6xjJGo-62">
          <mxGeometry y="106" width="255.5" height="220" as="geometry" />
        </mxCell>
        <mxCell id="NGMvnV3TCi31GRs46Qfe-47" value="+ sendBlocking&#xa;+ sendNonBlocking&#xa;+ handlePending&#xa;+ relaxedTellCheck&#xa;+ sendNotifications&#xa;+ synchronizedMonitoring&#xa;+ asynchronizedMonitoring&#xa;" style="align=left;strokeColor=none;fillColor=none;spacingLeft=4;fontSize=12;verticalAlign=top;resizable=0;rotatable=0;part=1;" vertex="1" parent="NGMvnV3TCi31GRs46Qfe-46">
          <mxGeometry y="30" width="255.5" height="190" as="geometry" />
        </mxCell>
        <mxCell id="IVH2vKFqgPVNo_6xjJGo-71" value="gets the automata" style="edgeStyle=orthogonalEdgeStyle;rounded=0;orthogonalLoop=1;jettySize=auto;html=1;exitX=0.5;exitY=1;exitDx=0;exitDy=0;entryX=0.5;entryY=0;entryDx=0;entryDy=0;" parent="3" source="IVH2vKFqgPVNo_6xjJGo-68" target="IVH2vKFqgPVNo_6xjJGo-70" edge="1">
          <mxGeometry relative="1" as="geometry" />
        </mxCell>
        <mxCell id="IVH2vKFqgPVNo_6xjJGo-68" value="SecureActorObject" style="html=1;" parent="3" vertex="1">
          <mxGeometry x="82.75" y="392" width="110" height="50" as="geometry" />
        </mxCell>
        <mxCell id="IVH2vKFqgPVNo_6xjJGo-70" value="AutomataObject" style="html=1;" parent="3" vertex="1">
          <mxGeometry x="82.75" y="512" width="110" height="50" as="geometry" />
        </mxCell>
        <mxCell id="NGMvnV3TCi31GRs46Qfe-93" value="Custom Priority Mailbox" style="swimlane;fontStyle=0;childLayout=stackLayout;horizontal=1;startSize=26;fillColor=none;horizontalStack=0;resizeParent=1;resizeParentMax=0;resizeLast=0;collapsible=1;marginBottom=0;align=center;" vertex="1" parent="3">
          <mxGeometry x="225.5" y="452" width="140" height="104" as="geometry" />
        </mxCell>
        <mxCell id="NGMvnV3TCi31GRs46Qfe-94" value="+ Stashed Msg" style="text;strokeColor=none;fillColor=none;align=left;verticalAlign=top;spacingLeft=4;spacingRight=4;overflow=hidden;rotatable=0;points=[[0,0.5],[1,0.5]];portConstraint=eastwest;" vertex="1" parent="NGMvnV3TCi31GRs46Qfe-93">
          <mxGeometry y="26" width="140" height="26" as="geometry" />
        </mxCell>
        <mxCell id="NGMvnV3TCi31GRs46Qfe-95" value="+ Control Msg" style="text;strokeColor=none;fillColor=none;align=left;verticalAlign=top;spacingLeft=4;spacingRight=4;overflow=hidden;rotatable=0;points=[[0,0.5],[1,0.5]];portConstraint=eastwest;" vertex="1" parent="NGMvnV3TCi31GRs46Qfe-93">
          <mxGeometry y="52" width="140" height="26" as="geometry" />
        </mxCell>
        <mxCell id="NGMvnV3TCi31GRs46Qfe-96" value="+ Normal Msg" style="text;strokeColor=none;fillColor=none;align=left;verticalAlign=top;spacingLeft=4;spacingRight=4;overflow=hidden;rotatable=0;points=[[0,0.5],[1,0.5]];portConstraint=eastwest;" vertex="1" parent="NGMvnV3TCi31GRs46Qfe-93">
          <mxGeometry y="78" width="140" height="26" as="geometry" />
        </mxCell>
        <mxCell id="4" value="Akka Classic Actor" style="swimlane;whiteSpace=wrap;startSize=23;" parent="1" vertex="1">
          <mxGeometry x="850" y="128" width="310" height="570" as="geometry" />
        </mxCell>
        <mxCell id="IVH2vKFqgPVNo_6xjJGo-41" value="Actor System" style="swimlane;fontStyle=0;childLayout=stackLayout;horizontal=1;startSize=26;fillColor=none;horizontalStack=0;resizeParent=1;resizeParentMax=0;resizeLast=0;collapsible=1;marginBottom=0;" parent="4" vertex="1">
          <mxGeometry x="60" y="40" width="140.5" height="78" as="geometry" />
        </mxCell>
        <mxCell id="IVH2vKFqgPVNo_6xjJGo-42" value="+ actorSelection" style="text;strokeColor=none;fillColor=none;align=left;verticalAlign=top;spacingLeft=4;spacingRight=4;overflow=hidden;rotatable=0;points=[[0,0.5],[1,0.5]];portConstraint=eastwest;" parent="IVH2vKFqgPVNo_6xjJGo-41" vertex="1">
          <mxGeometry y="26" width="140.5" height="26" as="geometry" />
        </mxCell>
        <mxCell id="IVH2vKFqgPVNo_6xjJGo-43" value="+ actorOf" style="text;strokeColor=none;fillColor=none;align=left;verticalAlign=top;spacingLeft=4;spacingRight=4;overflow=hidden;rotatable=0;points=[[0,0.5],[1,0.5]];portConstraint=eastwest;" parent="IVH2vKFqgPVNo_6xjJGo-41" vertex="1">
          <mxGeometry y="52" width="140.5" height="26" as="geometry" />
        </mxCell>
        <mxCell id="IVH2vKFqgPVNo_6xjJGo-45" value="Actor" style="swimlane;fontStyle=0;childLayout=stackLayout;horizontal=1;startSize=26;fillColor=none;horizontalStack=0;resizeParent=1;resizeParentMax=0;resizeLast=0;collapsible=1;marginBottom=0;" parent="4" vertex="1">
          <mxGeometry x="60" y="172" width="180" height="156" as="geometry" />
        </mxCell>
        <mxCell id="IVH2vKFqgPVNo_6xjJGo-59" value="+ ref: ActorRef" style="text;strokeColor=none;fillColor=none;align=left;verticalAlign=top;spacingLeft=4;spacingRight=4;overflow=hidden;rotatable=0;points=[[0,0.5],[1,0.5]];portConstraint=eastwest;" parent="IVH2vKFqgPVNo_6xjJGo-45" vertex="1">
          <mxGeometry y="26" width="180" height="26" as="geometry" />
        </mxCell>
        <mxCell id="IVH2vKFqgPVNo_6xjJGo-46" value="+ !: function" style="text;strokeColor=none;fillColor=none;align=left;verticalAlign=top;spacingLeft=4;spacingRight=4;overflow=hidden;rotatable=0;points=[[0,0.5],[1,0.5]];portConstraint=eastwest;" parent="IVH2vKFqgPVNo_6xjJGo-45" vertex="1">
          <mxGeometry y="52" width="180" height="26" as="geometry" />
        </mxCell>
        <mxCell id="IVH2vKFqgPVNo_6xjJGo-49" style="edgeStyle=orthogonalEdgeStyle;rounded=0;orthogonalLoop=1;jettySize=auto;html=1;exitX=1;exitY=0.5;exitDx=0;exitDy=0;" parent="IVH2vKFqgPVNo_6xjJGo-45" edge="1">
          <mxGeometry relative="1" as="geometry">
            <mxPoint x="150" y="91" as="sourcePoint" />
            <mxPoint x="150" y="91" as="targetPoint" />
          </mxGeometry>
        </mxCell>
        <mxCell id="IVH2vKFqgPVNo_6xjJGo-60" value="+ context: ActorSystem" style="text;strokeColor=none;fillColor=none;align=left;verticalAlign=top;spacingLeft=4;spacingRight=4;overflow=hidden;rotatable=0;points=[[0,0.5],[1,0.5]];portConstraint=eastwest;" parent="IVH2vKFqgPVNo_6xjJGo-45" vertex="1">
          <mxGeometry y="78" width="180" height="26" as="geometry" />
        </mxCell>
        <mxCell id="IVH2vKFqgPVNo_6xjJGo-61" value="+ props: Props (constructor)" style="text;strokeColor=none;fillColor=none;align=left;verticalAlign=top;spacingLeft=4;spacingRight=4;overflow=hidden;rotatable=0;points=[[0,0.5],[1,0.5]];portConstraint=eastwest;" parent="IVH2vKFqgPVNo_6xjJGo-45" vertex="1">
          <mxGeometry y="104" width="180" height="26" as="geometry" />
        </mxCell>
        <mxCell id="IVH2vKFqgPVNo_6xjJGo-66" value="+ receive: Receive (behaviour)" style="text;strokeColor=none;fillColor=none;align=left;verticalAlign=top;spacingLeft=4;spacingRight=4;overflow=hidden;rotatable=0;points=[[0,0.5],[1,0.5]];portConstraint=eastwest;" parent="IVH2vKFqgPVNo_6xjJGo-45" vertex="1">
          <mxGeometry y="130" width="180" height="26" as="geometry" />
        </mxCell>
        <mxCell id="NGMvnV3TCi31GRs46Qfe-25" style="edgeStyle=orthogonalEdgeStyle;rounded=0;orthogonalLoop=1;jettySize=auto;html=1;exitX=1;exitY=0.5;exitDx=0;exitDy=0;entryX=0.5;entryY=0;entryDx=0;entryDy=0;fillColor=#f8cecc;strokeColor=#b85450;" edge="1" parent="1" source="NGMvnV3TCi31GRs46Qfe-13" target="3">
          <mxGeometry relative="1" as="geometry" />
        </mxCell>
        <mxCell id="NGMvnV3TCi31GRs46Qfe-28" value="extends" style="edgeLabel;html=1;align=center;verticalAlign=middle;resizable=0;points=[];" vertex="1" connectable="0" parent="NGMvnV3TCi31GRs46Qfe-25">
          <mxGeometry x="-0.0924" relative="1" as="geometry">
            <mxPoint x="60" as="offset" />
          </mxGeometry>
        </mxCell>
        <mxCell id="NGMvnV3TCi31GRs46Qfe-34" style="edgeStyle=orthogonalEdgeStyle;rounded=0;orthogonalLoop=1;jettySize=auto;html=1;exitX=0.75;exitY=1;exitDx=0;exitDy=0;entryX=0;entryY=0.5;entryDx=0;entryDy=0;fillColor=#fff2cc;strokeColor=#d6b656;" edge="1" parent="1" source="NGMvnV3TCi31GRs46Qfe-13" target="IVH2vKFqgPVNo_6xjJGo-66">
          <mxGeometry relative="1" as="geometry">
            <Array as="points">
              <mxPoint x="316" y="730" />
              <mxPoint x="760" y="730" />
              <mxPoint x="760" y="443" />
            </Array>
          </mxGeometry>
        </mxCell>
        <mxCell id="NGMvnV3TCi31GRs46Qfe-36" value="Overrides" style="edgeLabel;html=1;align=center;verticalAlign=middle;resizable=0;points=[];" vertex="1" connectable="0" parent="NGMvnV3TCi31GRs46Qfe-34">
          <mxGeometry x="0.177" relative="1" as="geometry">
            <mxPoint as="offset" />
          </mxGeometry>
        </mxCell>
        <mxCell id="NGMvnV3TCi31GRs46Qfe-70" value="calls" style="edgeStyle=orthogonalEdgeStyle;rounded=0;orthogonalLoop=1;jettySize=auto;html=1;exitX=1;exitY=0.25;exitDx=0;exitDy=0;entryX=0;entryY=0.5;entryDx=0;entryDy=0;" edge="1" parent="1" source="NGMvnV3TCi31GRs46Qfe-47" target="IVH2vKFqgPVNo_6xjJGo-42">
          <mxGeometry relative="1" as="geometry">
            <mxPoint x="760" y="290" as="targetPoint" />
          </mxGeometry>
        </mxCell>
        <mxCell id="NGMvnV3TCi31GRs46Qfe-71" value="calls" style="edgeStyle=orthogonalEdgeStyle;rounded=0;orthogonalLoop=1;jettySize=auto;html=1;exitX=1;exitY=0.5;exitDx=0;exitDy=0;entryX=0;entryY=0.5;entryDx=0;entryDy=0;" edge="1" parent="1" source="NGMvnV3TCi31GRs46Qfe-47" target="IVH2vKFqgPVNo_6xjJGo-46">
          <mxGeometry relative="1" as="geometry" />
        </mxCell>
        <mxCell id="NGMvnV3TCi31GRs46Qfe-73" value="gets" style="edgeStyle=orthogonalEdgeStyle;rounded=0;orthogonalLoop=1;jettySize=auto;html=1;exitX=1;exitY=0.75;exitDx=0;exitDy=0;" edge="1" parent="1" source="NGMvnV3TCi31GRs46Qfe-47">
          <mxGeometry relative="1" as="geometry">
            <mxPoint x="910" y="400" as="targetPoint" />
          </mxGeometry>
        </mxCell>
        <mxCell id="NGMvnV3TCi31GRs46Qfe-74" value="gets" style="edgeStyle=orthogonalEdgeStyle;rounded=0;orthogonalLoop=1;jettySize=auto;html=1;exitX=0.75;exitY=1;exitDx=0;exitDy=0;entryX=1;entryY=0.5;entryDx=0;entryDy=0;" edge="1" parent="1" source="NGMvnV3TCi31GRs46Qfe-47" target="IVH2vKFqgPVNo_6xjJGo-59">
          <mxGeometry relative="1" as="geometry">
            <mxPoint x="980" y="486" as="targetPoint" />
            <Array as="points">
              <mxPoint x="646" y="506" />
              <mxPoint x="1120" y="506" />
              <mxPoint x="1120" y="339" />
            </Array>
          </mxGeometry>
        </mxCell>
        <mxCell id="NGMvnV3TCi31GRs46Qfe-81" value="calls" style="edgeStyle=orthogonalEdgeStyle;rounded=0;orthogonalLoop=1;jettySize=auto;html=1;exitX=1;exitY=1;exitDx=0;exitDy=0;" edge="1" parent="1" source="NGMvnV3TCi31GRs46Qfe-13" target="NGMvnV3TCi31GRs46Qfe-46">
          <mxGeometry relative="1" as="geometry" />
        </mxCell>
        <mxCell id="NGMvnV3TCi31GRs46Qfe-83" value="is an instance of" style="edgeStyle=orthogonalEdgeStyle;rounded=0;orthogonalLoop=1;jettySize=auto;html=1;exitX=0.5;exitY=1;exitDx=0;exitDy=0;entryX=0.75;entryY=0;entryDx=0;entryDy=0;" edge="1" parent="1" source="NGMvnV3TCi31GRs46Qfe-82" target="IVH2vKFqgPVNo_6xjJGo-41">
          <mxGeometry x="-0.2476" relative="1" as="geometry">
            <mxPoint x="1080" y="200" as="targetPoint" />
            <Array as="points">
              <mxPoint x="247" y="800" />
              <mxPoint x="1090" y="800" />
              <mxPoint x="1090" y="160" />
              <mxPoint x="1015" y="160" />
            </Array>
            <mxPoint as="offset" />
          </mxGeometry>
        </mxCell>
        <mxCell id="NGMvnV3TCi31GRs46Qfe-84" value="calls" style="edgeStyle=orthogonalEdgeStyle;rounded=0;orthogonalLoop=1;jettySize=auto;html=1;exitX=0.75;exitY=1;exitDx=0;exitDy=0;" edge="1" parent="1" source="NGMvnV3TCi31GRs46Qfe-82" target="IVH2vKFqgPVNo_6xjJGo-61">
          <mxGeometry relative="1" as="geometry">
            <mxPoint x="1140" y="420" as="targetPoint" />
            <Array as="points">
              <mxPoint x="276" y="784" />
              <mxPoint x="1140" y="784" />
              <mxPoint x="1140" y="420" />
            </Array>
          </mxGeometry>
        </mxCell>
        <mxCell id="NGMvnV3TCi31GRs46Qfe-92" value="reads" style="edgeStyle=orthogonalEdgeStyle;rounded=0;orthogonalLoop=1;jettySize=auto;html=1;exitX=0;exitY=0.5;exitDx=0;exitDy=0;fillColor=#1ba1e2;strokeColor=#006EAF;" edge="1" parent="1" source="IVH2vKFqgPVNo_6xjJGo-70" target="NGMvnV3TCi31GRs46Qfe-91">
          <mxGeometry relative="1" as="geometry" />
        </mxCell>
        <mxCell id="NGMvnV3TCi31GRs46Qfe-97" value="chooses as default mailbox for each actor" style="edgeStyle=orthogonalEdgeStyle;rounded=0;orthogonalLoop=1;jettySize=auto;html=1;exitX=0.25;exitY=1;exitDx=0;exitDy=0;entryX=0.432;entryY=0;entryDx=0;entryDy=0;entryPerimeter=0;" edge="1" parent="1" source="NGMvnV3TCi31GRs46Qfe-82" target="NGMvnV3TCi31GRs46Qfe-93">
          <mxGeometry relative="1" as="geometry">
            <mxPoint x="730" y="560" as="targetPoint" />
            <Array as="points">
              <mxPoint x="219" y="760" />
              <mxPoint x="820" y="760" />
              <mxPoint x="820" y="550" />
              <mxPoint x="730" y="550" />
            </Array>
          </mxGeometry>
        </mxCell>
      </root>
    </mxGraphModel>
  </diagram>
</mxfile>
